<svg id="visual" viewBox="0 0 960 300" width="960" height="300"
    xmlns="http://www.w3.org/2000/svg"
    xmlns:xlink="http://www.w3.org/1999/xlink" version="1.1">
    <rect x="0" y="0" width="960" height="300" fill="#08004d"></rect>
    <g transform="translate(473.00060794844285 160.02414161232608)">
        <path d="M65.2 -102.1C82.7 -90.1 94.1 -69.1 110.3 -46.6C126.4 -24.1 147.4 0.1 144.1 20.5C140.9 41 113.5 57.8 89.9 68.8C66.2 79.8 46.3 84.9 25.4 94.6C4.6 104.4 -17.3 118.9 -39.5 119.3C-61.6 119.7 -84.1 106 -93.4 86.1C-102.7 66.1 -98.9 39.9 -105.5 13.4C-112.2 -13.2 -129.3 -40 -130.4 -68.6C-131.4 -97.2 -116.4 -127.5 -92 -136.3C-67.6 -145.2 -33.8 -132.6 -5 -124.8C23.8 -117 47.6 -114 65.2 -102.1" fill="#0b00ba"></path>
    </g>
</svg>