<svg id="visual" viewBox="0 0 960 300" width="960" height="300"
    xmlns="http://www.w3.org/2000/svg"
    xmlns:xlink="http://www.w3.org/1999/xlink" version="1.1">
    <rect x="0" y="0" width="960" height="300" fill="#1669a3"></rect>
    <path d="M0 182L22.8 184.7C45.7 187.3 91.3 192.7 137 196.2C182.7 199.7 228.3 201.3 274 200.8C319.7 200.3 365.3 197.7 411.2 195.8C457 194 503 193 548.8 194.3C594.7 195.7 640.3 199.3 686 198C731.7 196.7 777.3 190.3 823 189.5C868.7 188.7 914.3 193.3 937.2 195.7L960 198L960 301L937.2 301C914.3 301 868.7 301 823 301C777.3 301 731.7 301 686 301C640.3 301 594.7 301 548.8 301C503 301 457 301 411.2 301C365.3 301 319.7 301 274 301C228.3 301 182.7 301 137 301C91.3 301 45.7 301 22.8 301L0 301Z" fill="#69a2fa"></path>
    <path d="M0 228L22.8 226.8C45.7 225.7 91.3 223.3 137 218.3C182.7 213.3 228.3 205.7 274 206.3C319.7 207 365.3 216 411.2 216.3C457 216.7 503 208.3 548.8 208.7C594.7 209 640.3 218 686 222.8C731.7 227.7 777.3 228.3 823 225.8C868.7 223.3 914.3 217.7 937.2 214.8L960 212L960 301L937.2 301C914.3 301 868.7 301 823 301C777.3 301 731.7 301 686 301C640.3 301 594.7 301 548.8 301C503 301 457 301 411.2 301C365.3 301 319.7 301 274 301C228.3 301 182.7 301 137 301C91.3 301 45.7 301 22.8 301L0 301Z" fill="#668bf6"></path>
    <path d="M0 223L22.8 225.7C45.7 228.3 91.3 233.7 137 233.2C182.7 232.7 228.3 226.3 274 223.8C319.7 221.3 365.3 222.7 411.2 224.8C457 227 503 230 548.8 230C594.7 230 640.3 227 686 226.7C731.7 226.3 777.3 228.7 823 231.8C868.7 235 914.3 239 937.2 241L960 243L960 301L937.2 301C914.3 301 868.7 301 823 301C777.3 301 731.7 301 686 301C640.3 301 594.7 301 548.8 301C503 301 457 301 411.2 301C365.3 301 319.7 301 274 301C228.3 301 182.7 301 137 301C91.3 301 45.7 301 22.8 301L0 301Z" fill="#6f71ed"></path>
    <path d="M0 252L22.8 252.3C45.7 252.7 91.3 253.3 137 255.7C182.7 258 228.3 262 274 263.8C319.7 265.7 365.3 265.3 411.2 263.3C457 261.3 503 257.7 548.8 254.8C594.7 252 640.3 250 686 249.5C731.7 249 777.3 250 823 252.2C868.7 254.3 914.3 257.7 937.2 259.3L960 261L960 301L937.2 301C914.3 301 868.7 301 823 301C777.3 301 731.7 301 686 301C640.3 301 594.7 301 548.8 301C503 301 457 301 411.2 301C365.3 301 319.7 301 274 301C228.3 301 182.7 301 137 301C91.3 301 45.7 301 22.8 301L0 301Z" fill="#7f52dd"></path>
    <path d="M0 264L22.8 265.7C45.7 267.3 91.3 270.7 137 272C182.7 273.3 228.3 272.7 274 273.5C319.7 274.3 365.3 276.7 411.2 279C457 281.3 503 283.7 548.8 284.7C594.7 285.7 640.3 285.3 686 284C731.7 282.7 777.3 280.3 823 276.5C868.7 272.7 914.3 267.3 937.2 264.7L960 262L960 301L937.2 301C914.3 301 868.7 301 823 301C777.3 301 731.7 301 686 301C640.3 301 594.7 301 548.8 301C503 301 457 301 411.2 301C365.3 301 319.7 301 274 301C228.3 301 182.7 301 137 301C91.3 301 45.7 301 22.8 301L0 301Z" fill="#9124c7"></path>
</svg>