<svg id="visual" viewBox="0 0 960 300" width="960" height="300" xmlns="http://www.w3.org/2000/svg" xmlns:xlink="http://www.w3.org/1999/xlink" version="1.1"><rect x="0" y="0" width="960" height="300" fill="#132727"></rect><path d="M0 249L9.3 240.3C18.7 231.7 37.3 214.3 56.2 207.2C75 200 94 203 112.8 212C131.7 221 150.3 236 169.2 236.2C188 236.3 207 221.7 225.8 213.3C244.7 205 263.3 203 282.2 204C301 205 320 209 338.8 215.2C357.7 221.3 376.3 229.7 395.2 227.7C414 225.7 433 213.3 451.8 213.8C470.7 214.3 489.3 227.7 508.2 227.7C527 227.7 546 214.3 564.8 208.2C583.7 202 602.3 203 621.2 207.5C640 212 659 220 677.8 220C696.7 220 715.3 212 734.2 214.7C753 217.3 772 230.7 790.8 228.2C809.7 225.7 828.3 207.3 847.2 205.7C866 204 885 219 903.8 230.2C922.7 241.3 941.3 248.7 950.7 252.3L960 256L960 301L950.7 301C941.3 301 922.7 301 903.8 301C885 301 866 301 847.2 301C828.3 301 809.7 301 790.8 301C772 301 753 301 734.2 301C715.3 301 696.7 301 677.8 301C659 301 640 301 621.2 301C602.3 301 583.7 301 564.8 301C546 301 527 301 508.2 301C489.3 301 470.7 301 451.8 301C433 301 414 301 395.2 301C376.3 301 357.7 301 338.8 301C320 301 301 301 282.2 301C263.3 301 244.7 301 225.8 301C207 301 188 301 169.2 301C150.3 301 131.7 301 112.8 301C94 301 75 301 56.2 301C37.3 301 18.7 301 9.3 301L0 301Z" fill="#08004d" stroke-linecap="round" stroke-linejoin="miter"></path></svg>