<svg id="visual" viewBox="0 0 960 300" width="960" height="300" xmlns="http://www.w3.org/2000/svg" xmlns:xlink="http://www.w3.org/1999/xlink" version="1.1"><rect x="0" y="0" width="960" height="300" fill="#08004d"></rect><path d="M0 229L9.3 231.2C18.7 233.3 37.3 237.7 56.2 239C75 240.3 94 238.7 112.8 237.7C131.7 236.7 150.3 236.3 169.2 232.2C188 228 207 220 225.8 222.5C244.7 225 263.3 238 282.2 244.5C301 251 320 251 338.8 247.8C357.7 244.7 376.3 238.3 395.2 227.8C414 217.3 433 202.7 451.8 201.7C470.7 200.7 489.3 213.3 508.2 215.3C527 217.3 546 208.7 564.8 204C583.7 199.3 602.3 198.7 621.2 203.8C640 209 659 220 677.8 219.3C696.7 218.7 715.3 206.3 734.2 209.2C753 212 772 230 790.8 231C809.7 232 828.3 216 847.2 207.5C866 199 885 198 903.8 202C922.7 206 941.3 215 950.7 219.5L960 224L960 301L950.7 301C941.3 301 922.7 301 903.8 301C885 301 866 301 847.2 301C828.3 301 809.7 301 790.8 301C772 301 753 301 734.2 301C715.3 301 696.7 301 677.8 301C659 301 640 301 621.2 301C602.3 301 583.7 301 564.8 301C546 301 527 301 508.2 301C489.3 301 470.7 301 451.8 301C433 301 414 301 395.2 301C376.3 301 357.7 301 338.8 301C320 301 301 301 282.2 301C263.3 301 244.7 301 225.8 301C207 301 188 301 169.2 301C150.3 301 131.7 301 112.8 301C94 301 75 301 56.2 301C37.3 301 18.7 301 9.3 301L0 301Z" fill="#1669a3" stroke-linecap="round" stroke-linejoin="miter"></path></svg>